<?xml version="1.0" encoding="utf-8"?>
<!-- Generator: Adobe Illustrator 16.0.4, SVG Export Plug-In . SVG Version: 6.00 Build 0)  -->
<!DOCTYPE svg PUBLIC "-//W3C//DTD SVG 1.1//EN" "http://www.w3.org/Graphics/SVG/1.1/DTD/svg11.dtd">
<svg version="1.1" id="Layer_1" xmlns="http://www.w3.org/2000/svg" xmlns:xlink="http://www.w3.org/1999/xlink" x="0px" y="0px"
	 width="170.625px" height="199.375px" viewBox="0 0 170.625 199.375" enable-background="new 0 0 170.625 199.375"
	 xml:space="preserve">
<g>
	<path d="M16.671,133.848h4.056v18.33h7.514v4.68h-11.57V133.848z"/>
	<path d="M31.725,133.848h4.056v23.01h-4.056V133.848z"/>
	<path d="M40.929,133.848h12.35v4.68h-8.294v4.682h7.67v4.682h-7.67v8.971h-4.056V133.848z"/>
	<path d="M57.646,133.848h12.506v4.68h-8.45v4.291h7.982v4.681h-7.982v4.681h8.918v4.682H57.646V133.848z"/>
	<path d="M84.27,139.47c-0.329-0.52-0.775-0.903-1.339-1.153c-0.564-0.248-1.097-0.373-1.599-0.373c-0.295,0-0.599,0.043-0.91,0.131
		c-0.312,0.087-0.607,0.223-0.884,0.404c-0.277,0.187-0.503,0.431-0.676,0.731c-0.174,0.304-0.26,0.672-0.26,1.104
		c0,0.692,0.208,1.225,0.624,1.593s0.94,0.683,1.573,0.942c0.633,0.26,1.313,0.521,2.041,0.778c0.728,0.261,1.408,0.629,2.041,1.104
		c0.633,0.477,1.157,1.115,1.573,1.916c0.416,0.804,0.624,1.875,0.624,3.22c0,1.276-0.191,2.396-0.572,3.348
		c-0.382,0.953-0.897,1.744-1.547,2.372c-0.65,0.629-1.404,1.096-2.262,1.396c-0.858,0.305-1.765,0.455-2.718,0.455
		c-1.196,0-2.305-0.229-3.328-0.684s-1.976-1.191-2.86-2.21l2.886-3.965c0.416,0.692,0.94,1.229,1.573,1.608
		s1.287,0.567,1.963,0.567c0.329,0,0.663-0.049,1.001-0.146c0.338-0.098,0.641-0.244,0.91-0.438s0.485-0.442,0.649-0.748
		c0.165-0.303,0.247-0.659,0.247-1.071c0-0.692-0.212-1.239-0.637-1.643c-0.425-0.398-0.958-0.741-1.599-1.021
		c-0.642-0.281-1.335-0.563-2.08-0.847c-0.746-0.28-1.439-0.659-2.08-1.138c-0.642-0.479-1.175-1.104-1.599-1.885
		c-0.425-0.78-0.637-1.811-0.637-3.09c0-1.233,0.195-2.316,0.585-3.25c0.39-0.932,0.91-1.711,1.56-2.34
		c0.65-0.627,1.4-1.1,2.249-1.414c0.849-0.312,1.725-0.471,2.626-0.471c1.04,0,2.045,0.186,3.016,0.553
		c0.971,0.369,1.846,0.985,2.626,1.854L84.27,139.47z"/>
	<path d="M94.956,138.332h-5.252v-4.484h14.562v4.484h-5.252v18.525h-4.058V138.332z"/>
	<path d="M112.793,147.042l-6.917-13.194h5.044l3.898,8.612l4.135-8.612h4.811l-6.916,13.194v9.815h-4.056L112.793,147.042
		L112.793,147.042z"/>
	<path d="M126.572,133.848h4.056v18.33h7.515v4.68h-11.568L126.572,133.848L126.572,133.848z"/>
	<path d="M141.834,133.848h12.506v4.68h-8.449v4.291h7.981v4.681h-7.981v4.681h8.918v4.682h-12.975V133.848L141.834,133.848z"/>
	<path d="M21.611,163.848h3.354l8.008,23.01h-4.576l-1.586-4.875h-7.15l-1.534,4.875h-4.472L21.611,163.848z M23.171,170.542
		l-2.236,7.149h4.498L23.171,170.542z"/>
	<path d="M36.769,168.332h-5.252v-4.484h14.56v4.484h-5.252v18.525h-4.056V168.332z"/>
	<path d="M48.911,163.848h4.056v8.58h7.878v-8.58h4.056v23.01h-4.056v-9.943h-7.878v9.943h-4.056V163.848z"/>
	<path d="M69.581,163.848h4.056v18.33h7.513v4.68H69.581V163.848z"/>
	<path d="M84.324,163.848H96.83v4.68h-8.45v4.291h7.981v4.681H88.38v4.681h8.918v4.682H84.324V163.848z"/>
	<path d="M104.889,168.332h-5.252v-4.484h14.562v4.484h-5.254v18.525h-4.057V168.332z"/>
	<path d="M116.979,163.848h4.058v23.01h-4.058V163.848z"/>
	<path d="M137.545,169.827c-0.398-0.606-0.889-1.072-1.469-1.397c-0.581-0.324-1.253-0.486-2.016-0.486
		c-0.765,0-1.471,0.186-2.119,0.554c-0.649,0.368-1.213,0.883-1.689,1.544c-0.479,0.661-0.85,1.445-1.118,2.354
		c-0.269,0.91-0.403,1.896-0.403,2.959c0,1.084,0.137,2.074,0.403,2.975c0.269,0.898,0.638,1.68,1.104,2.34
		c0.469,0.661,1.019,1.176,1.65,1.544c0.633,0.368,1.312,0.554,2.041,0.554c0.832,0,1.567-0.218,2.211-0.649
		c0.642-0.433,1.17-1.04,1.586-1.82l3.379,3.153c-0.778,1.363-1.769,2.371-2.963,3.021c-1.197,0.649-2.429,0.976-3.691,0.976
		c-1.439,0-2.766-0.281-3.979-0.844c-1.215-0.563-2.264-1.371-3.146-2.424c-0.885-1.05-1.573-2.322-2.067-3.816
		c-0.493-1.495-0.741-3.164-0.741-5.006s0.248-3.511,0.741-5.004c0.494-1.496,1.183-2.77,2.067-3.82
		c0.884-1.051,1.933-1.856,3.146-2.42c1.213-0.564,2.539-0.846,3.979-0.846c0.52,0,1.062,0.061,1.625,0.18s1.117,0.309,1.664,0.566
		c0.546,0.262,1.068,0.607,1.572,1.04c0.502,0.435,0.953,0.966,1.353,1.595L137.545,169.827z"/>
	<path d="M153.195,169.47c-0.328-0.52-0.774-0.903-1.338-1.153c-0.564-0.248-1.099-0.373-1.601-0.373
		c-0.295,0-0.599,0.043-0.909,0.131c-0.312,0.087-0.606,0.223-0.885,0.404c-0.275,0.187-0.503,0.431-0.676,0.731
		c-0.176,0.304-0.262,0.672-0.262,1.104c0,0.692,0.207,1.225,0.623,1.593s0.94,0.683,1.574,0.942
		c0.633,0.26,1.312,0.521,2.041,0.778c0.729,0.261,1.407,0.629,2.041,1.104c0.633,0.477,1.156,1.115,1.572,1.916
		c0.416,0.804,0.624,1.875,0.624,3.22c0,1.276-0.19,2.396-0.571,3.348c-0.383,0.953-0.896,1.744-1.548,2.372
		c-0.649,0.629-1.403,1.096-2.262,1.396c-0.858,0.305-1.765,0.455-2.718,0.455c-1.195,0-2.305-0.229-3.328-0.684
		c-1.021-0.455-1.977-1.191-2.859-2.21l2.887-3.965c0.416,0.692,0.939,1.229,1.572,1.608s1.287,0.567,1.963,0.567
		c0.329,0,0.663-0.049,1.002-0.146c0.338-0.098,0.641-0.244,0.909-0.438s0.485-0.442,0.649-0.748
		c0.164-0.303,0.246-0.659,0.246-1.071c0-0.692-0.211-1.239-0.637-1.643c-0.426-0.398-0.957-0.741-1.6-1.021
		c-0.643-0.281-1.335-0.563-2.08-0.847c-0.746-0.28-1.438-0.659-2.08-1.138s-1.175-1.104-1.6-1.885
		c-0.426-0.781-0.639-1.811-0.639-3.09c0-1.233,0.195-2.316,0.586-3.25c0.392-0.932,0.91-1.711,1.562-2.34
		c0.647-0.627,1.397-1.1,2.249-1.414c0.85-0.312,1.727-0.471,2.626-0.471c1.04,0,2.045,0.186,3.017,0.553
		c0.971,0.369,1.846,0.985,2.627,1.854L153.195,169.47z"/>
</g>
<path fill="#EE612B" d="M100,9.75l59,117.219l-148.5,0.094L69.25,9.75H100z M84.625,40.75l-29.5,59h59.125L84.625,40.75z"/>
<polygon fill="#F09E37" points="100,9.75 145.189,99.75 114.25,99.75 84.625,40.75 "/>
</svg>
